<svg xmlns="http://www.w3.org/2000/svg" version="1.1" xmlns:xlink="http://www.w3.org/1999/xlink" xmlns:svgjs="http://svgjs.dev/svgjs" width="1920" height="1080" preserveAspectRatio="none" viewBox="0 0 1920 1080"><g mask="url(&quot;#SvgjsMask1510&quot;)" fill="none"><rect width="1920" height="1080" x="0" y="0" fill="rgba(12, 100, 90, 1)"></rect><use xlink:href="#SvgjsG1515" transform="translate(0, 0)" fill="rgba(142, 189, 201, 1)"></use><use xlink:href="#SvgjsG1515" transform="translate(0, 738)" fill="rgba(142, 189, 201, 1)"></use><use xlink:href="#SvgjsG1515" transform="translate(738, 0)" fill="rgba(142, 189, 201, 1)"></use><use xlink:href="#SvgjsG1515" transform="translate(738, 738)" fill="rgba(142, 189, 201, 1)"></use><use xlink:href="#SvgjsG1515" transform="translate(1476, 0)" fill="rgba(142, 189, 201, 1)"></use><use xlink:href="#SvgjsG1515" transform="translate(1476, 738)" fill="rgba(142, 189, 201, 1)"></use></g><defs><mask id="SvgjsMask1510"><rect width="1920" height="1080" fill="#ffffff"></rect></mask><g id="SvgjsG1513"><path d="M3.68 14.12C0.11 11.8-0.9 7.02 1.42 3.45 3.73-0.12 8.52-1.14 12.09 1.18S16.68 8.28 14.36 11.85c-2.32 3.57-7.11 4.58-10.68 2.27z m1.04-1.6c2.68 1.74 6.29 0.98 8.04-1.71 1.74-2.68 0.97-6.29-1.71-8.03-2.69-1.74-6.29-0.97-8.03 1.71-1.75 2.69-0.98 6.29 1.7 8.03z"></path><path d="M7.36 8.53a0.57 0.57 0 0 1-0.44-0.34 0.58 0.58 0 0 1 0-0.48L9.36 3.95a0.58 0.58 0 0 1 0.97 0.63l-1.89 2.92 3.25 0.44a0.58 0.58 0 0 1 0.5 0.65c-0.04 0.32-0.34 0.54-0.65 0.5l-4.17-0.56z"></path></g><g id="SvgjsG1512"><path d="M9.95 4.32c0.69 0.45 1.61 0.25 2.06-0.44S12.26 2.28 11.57 1.83c-0.69-0.45-1.61-0.25-2.06 0.43s-0.25 1.61 0.44 2.06zM8.29 15.2L-1.66 8.75c-0.28-0.18-0.39 0.06-0.39 0.05l-0.24 0.37s-0.33 0.46 0.16 0.78l12.45 8.08c0.49 0.32 0.77-0.16 0.77-0.16l0.65-1.01s0.17-0.35-0.21-0.6l-1.21-0.79c-0.42-0.27-1.24 0.24-2.03-0.27z m2.43-1.62c-0.4 0.62-0.22 1.45 0.39 1.85 0.62 0.4 1.45 0.23 1.85-0.39 0.4-0.62 0.22-1.45-0.39-1.85-0.62-0.4-1.45-0.23-1.85 0.39zM8.43 9.06a0.95 0.95 0 0 1-0.8 0.19L6.39 8.97l0.13 0.6 1.69 1.1 1.67-2.59-1.43 0.97c-0.01 0.01-0.01 0.01-0.02 0.01z"></path><path d="M9.66 12.49L6.16 10.22l-0.31-1.37-0.72-0.17c-0.54-0.13-0.91-0.71-0.8-1.24 0.08-0.33 0.29-0.62 0.59-0.74-0.07-0.05-2.12-1.38-2.12-1.37-0.34-0.22-0.79-0.13-1.01 0.21-0.22 0.34-0.12 0.79 0.22 1.01l2.09 1.35 0.01 1.79-4.49-2.43A0.73 0.73 0 0 0-1.25 7.55a0.73 0.73 0 0 0 0.22 1.02l4.78 3.1a1.04 1.04 0 0 1 0.17-0.54 1.05 1.05 0 0 1 1.46-0.31l1.91 1.24 1.77 0.68-0.19 0.47-1.81-0.7L5.1 11.24a0.55 0.55 0 0 0-0.76 0.16 0.55 0.55 0 0 0 0.16 0.75l3.78 2.47c0.59 0.38 1.37 0.21 1.75-0.38a1.27 1.27 0 0 0-0.37-1.75z"></path><path d="M5.3 8.25a0.58 0.58 0 0 1-0.48-0.67 0.58 0.58 0 0 1 0.67-0.48l2.21 0.49 1.41-0.96-0.28-0.36L7.64 7.09l-1.68-0.38L6.85 5.34l-2.26 0.58-1.5-0.97s4.49-1.17 4.63-1.21c0.18-0.04 0.54-0.05 1.01 0.25l1.68 1.1c0.96 0.62 0.52 1.69 0.01 2.06L8.15 8.71a0.59 0.59 0 0 1-0.46 0.08l-2.39-0.54z"></path></g><g id="SvgjsG1514"><path d="M4.25 13.54a9.98 9.98 0 0 0 2.17-6.77A9.99 9.99 0 0 0 3.56 0.26 9.97 9.97 0 0 0 1.38 7.03a9.98 9.98 0 0 0 2.86 6.51z m3.27-6.83a11.29 11.29 0 0 1-0.07 1.95 11.33 11.33 0 0 1 1.74-0.86 11.1 11.1 0 0 1 2.14-0.58A9.97 9.97 0 0 0 12.28 1.24a9.98 9.98 0 0 0-5.09 3.33 11.23 11.23 0 0 1 0.33 2.14z m9.18 2.08a9.99 9.99 0 0 0-7.11 0.04 10.06 10.06 0 0 0-2.45 1.36 11.08 11.08 0 0 1-1.79 3.7 9.97 9.97 0 0 0 6.05-0.36A9.97 9.97 0 0 0 16.7 8.79z" fill-rule="evenodd"></path></g><g id="SvgjsG1511"><path d="M4.37 13.59l8.17-1.74c2.54-0.54 3.97-2.8 3.48-5.11A4.27 4.27 0 0 0 10.95 3.45a4.26 4.26 0 0 0-5.04-3.3C3.59 0.65 2.1 2.88 2.65 5.41L4.37 13.59z"></path></g><g id="SvgjsG1515"><use xlink:href="#SvgjsG1511" transform="translate(0, 0) scale(1.8)" fill="rgba(142, 189, 201, 1)"></use><use xlink:href="#SvgjsG1511" transform="translate(0, 73.8) scale(1.8)" fill="rgba(142, 189, 201, 1)"></use><use xlink:href="#SvgjsG1512" transform="translate(0, 147.6) scale(1.8)" fill="rgba(142, 189, 201, 1)"></use><use xlink:href="#SvgjsG1512" transform="translate(0, 221.39999999999998) scale(1.8)" fill="rgba(142, 189, 201, 1)"></use><use xlink:href="#SvgjsG1513" transform="translate(0, 295.2) scale(1.8)" fill="rgba(142, 189, 201, 1)"></use><use xlink:href="#SvgjsG1513" transform="translate(0, 369) scale(1.8)" fill="rgba(142, 189, 201, 1)"></use><use xlink:href="#SvgjsG1514" transform="translate(0, 442.79999999999995) scale(1.8)" fill="rgba(142, 189, 201, 1)"></use><use xlink:href="#SvgjsG1512" transform="translate(0, 516.6) scale(1.8)" fill="rgba(142, 189, 201, 1)"></use><use xlink:href="#SvgjsG1512" transform="translate(0, 590.4) scale(1.8)" fill="rgba(142, 189, 201, 1)"></use><use xlink:href="#SvgjsG1514" transform="translate(0, 664.1999999999999) scale(1.8)" fill="rgba(142, 189, 201, 1)"></use><use xlink:href="#SvgjsG1514" transform="translate(73.8, 0) scale(1.8)" fill="rgba(142, 189, 201, 1)"></use><use xlink:href="#SvgjsG1514" transform="translate(73.8, 73.8) scale(1.8)" fill="rgba(142, 189, 201, 1)"></use><use xlink:href="#SvgjsG1512" transform="translate(73.8, 147.6) scale(1.8)" fill="rgba(142, 189, 201, 1)"></use><use xlink:href="#SvgjsG1512" transform="translate(73.8, 221.39999999999998) scale(1.8)" fill="rgba(142, 189, 201, 1)"></use><use xlink:href="#SvgjsG1513" transform="translate(73.8, 295.2) scale(1.8)" fill="rgba(142, 189, 201, 1)"></use><use xlink:href="#SvgjsG1511" transform="translate(73.8, 369) scale(1.8)" fill="rgba(142, 189, 201, 1)"></use><use xlink:href="#SvgjsG1512" transform="translate(73.8, 442.79999999999995) scale(1.8)" fill="rgba(142, 189, 201, 1)"></use><use xlink:href="#SvgjsG1512" transform="translate(73.8, 516.6) scale(1.8)" fill="rgba(142, 189, 201, 1)"></use><use xlink:href="#SvgjsG1511" transform="translate(73.8, 590.4) scale(1.8)" fill="rgba(142, 189, 201, 1)"></use><use xlink:href="#SvgjsG1514" transform="translate(73.8, 664.1999999999999) scale(1.8)" fill="rgba(142, 189, 201, 1)"></use><use xlink:href="#SvgjsG1514" transform="translate(147.6, 0) scale(1.8)" fill="rgba(142, 189, 201, 1)"></use><use xlink:href="#SvgjsG1512" transform="translate(147.6, 73.8) scale(1.8)" fill="rgba(142, 189, 201, 1)"></use><use xlink:href="#SvgjsG1512" transform="translate(147.6, 147.6) scale(1.8)" fill="rgba(142, 189, 201, 1)"></use><use xlink:href="#SvgjsG1514" transform="translate(147.6, 221.39999999999998) scale(1.8)" fill="rgba(142, 189, 201, 1)"></use><use xlink:href="#SvgjsG1512" transform="translate(147.6, 295.2) scale(1.8)" fill="rgba(142, 189, 201, 1)"></use><use xlink:href="#SvgjsG1514" transform="translate(147.6, 369) scale(1.8)" fill="rgba(142, 189, 201, 1)"></use><use xlink:href="#SvgjsG1514" transform="translate(147.6, 442.79999999999995) scale(1.8)" fill="rgba(142, 189, 201, 1)"></use><use xlink:href="#SvgjsG1511" transform="translate(147.6, 516.6) scale(1.8)" fill="rgba(142, 189, 201, 1)"></use><use xlink:href="#SvgjsG1513" transform="translate(147.6, 590.4) scale(1.8)" fill="rgba(142, 189, 201, 1)"></use><use xlink:href="#SvgjsG1512" transform="translate(147.6, 664.1999999999999) scale(1.8)" fill="rgba(142, 189, 201, 1)"></use><use xlink:href="#SvgjsG1512" transform="translate(221.39999999999998, 0) scale(1.8)" fill="rgba(142, 189, 201, 1)"></use><use xlink:href="#SvgjsG1513" transform="translate(221.39999999999998, 73.8) scale(1.8)" fill="rgba(142, 189, 201, 1)"></use><use xlink:href="#SvgjsG1514" transform="translate(221.39999999999998, 147.6) scale(1.8)" fill="rgba(142, 189, 201, 1)"></use><use xlink:href="#SvgjsG1511" transform="translate(221.39999999999998, 221.39999999999998) scale(1.8)" fill="rgba(142, 189, 201, 1)"></use><use xlink:href="#SvgjsG1513" transform="translate(221.39999999999998, 295.2) scale(1.8)" fill="rgba(142, 189, 201, 1)"></use><use xlink:href="#SvgjsG1511" transform="translate(221.39999999999998, 369) scale(1.8)" fill="rgba(142, 189, 201, 1)"></use><use xlink:href="#SvgjsG1513" transform="translate(221.39999999999998, 442.79999999999995) scale(1.8)" fill="rgba(142, 189, 201, 1)"></use><use xlink:href="#SvgjsG1511" transform="translate(221.39999999999998, 516.6) scale(1.8)" fill="rgba(142, 189, 201, 1)"></use><use xlink:href="#SvgjsG1511" transform="translate(221.39999999999998, 590.4) scale(1.8)" fill="rgba(142, 189, 201, 1)"></use><use xlink:href="#SvgjsG1511" transform="translate(221.39999999999998, 664.1999999999999) scale(1.8)" fill="rgba(142, 189, 201, 1)"></use><use xlink:href="#SvgjsG1512" transform="translate(295.2, 0) scale(1.8)" fill="rgba(142, 189, 201, 1)"></use><use xlink:href="#SvgjsG1511" transform="translate(295.2, 73.8) scale(1.8)" fill="rgba(142, 189, 201, 1)"></use><use xlink:href="#SvgjsG1514" transform="translate(295.2, 147.6) scale(1.8)" fill="rgba(142, 189, 201, 1)"></use><use xlink:href="#SvgjsG1511" transform="translate(295.2, 221.39999999999998) scale(1.8)" fill="rgba(142, 189, 201, 1)"></use><use xlink:href="#SvgjsG1513" transform="translate(295.2, 295.2) scale(1.8)" fill="rgba(142, 189, 201, 1)"></use><use xlink:href="#SvgjsG1514" transform="translate(295.2, 369) scale(1.8)" fill="rgba(142, 189, 201, 1)"></use><use xlink:href="#SvgjsG1513" transform="translate(295.2, 442.79999999999995) scale(1.8)" fill="rgba(142, 189, 201, 1)"></use><use xlink:href="#SvgjsG1511" transform="translate(295.2, 516.6) scale(1.8)" fill="rgba(142, 189, 201, 1)"></use><use xlink:href="#SvgjsG1513" transform="translate(295.2, 590.4) scale(1.8)" fill="rgba(142, 189, 201, 1)"></use><use xlink:href="#SvgjsG1514" transform="translate(295.2, 664.1999999999999) scale(1.8)" fill="rgba(142, 189, 201, 1)"></use><use xlink:href="#SvgjsG1513" transform="translate(369, 0) scale(1.8)" fill="rgba(142, 189, 201, 1)"></use><use xlink:href="#SvgjsG1513" transform="translate(369, 73.8) scale(1.8)" fill="rgba(142, 189, 201, 1)"></use><use xlink:href="#SvgjsG1512" transform="translate(369, 147.6) scale(1.8)" fill="rgba(142, 189, 201, 1)"></use><use xlink:href="#SvgjsG1512" transform="translate(369, 221.39999999999998) scale(1.8)" fill="rgba(142, 189, 201, 1)"></use><use xlink:href="#SvgjsG1514" transform="translate(369, 295.2) scale(1.8)" fill="rgba(142, 189, 201, 1)"></use><use xlink:href="#SvgjsG1512" transform="translate(369, 369) scale(1.8)" fill="rgba(142, 189, 201, 1)"></use><use xlink:href="#SvgjsG1514" transform="translate(369, 442.79999999999995) scale(1.8)" fill="rgba(142, 189, 201, 1)"></use><use xlink:href="#SvgjsG1514" transform="translate(369, 516.6) scale(1.8)" fill="rgba(142, 189, 201, 1)"></use><use xlink:href="#SvgjsG1513" transform="translate(369, 590.4) scale(1.8)" fill="rgba(142, 189, 201, 1)"></use><use xlink:href="#SvgjsG1513" transform="translate(369, 664.1999999999999) scale(1.8)" fill="rgba(142, 189, 201, 1)"></use><use xlink:href="#SvgjsG1511" transform="translate(442.79999999999995, 0) scale(1.8)" fill="rgba(142, 189, 201, 1)"></use><use xlink:href="#SvgjsG1514" transform="translate(442.79999999999995, 73.8) scale(1.8)" fill="rgba(142, 189, 201, 1)"></use><use xlink:href="#SvgjsG1511" transform="translate(442.79999999999995, 147.6) scale(1.8)" fill="rgba(142, 189, 201, 1)"></use><use xlink:href="#SvgjsG1514" transform="translate(442.79999999999995, 221.39999999999998) scale(1.8)" fill="rgba(142, 189, 201, 1)"></use><use xlink:href="#SvgjsG1514" transform="translate(442.79999999999995, 295.2) scale(1.8)" fill="rgba(142, 189, 201, 1)"></use><use xlink:href="#SvgjsG1514" transform="translate(442.79999999999995, 369) scale(1.8)" fill="rgba(142, 189, 201, 1)"></use><use xlink:href="#SvgjsG1511" transform="translate(442.79999999999995, 442.79999999999995) scale(1.8)" fill="rgba(142, 189, 201, 1)"></use><use xlink:href="#SvgjsG1514" transform="translate(442.79999999999995, 516.6) scale(1.8)" fill="rgba(142, 189, 201, 1)"></use><use xlink:href="#SvgjsG1513" transform="translate(442.79999999999995, 590.4) scale(1.8)" fill="rgba(142, 189, 201, 1)"></use><use xlink:href="#SvgjsG1513" transform="translate(442.79999999999995, 664.1999999999999) scale(1.8)" fill="rgba(142, 189, 201, 1)"></use><use xlink:href="#SvgjsG1514" transform="translate(516.6, 0) scale(1.8)" fill="rgba(142, 189, 201, 1)"></use><use xlink:href="#SvgjsG1511" transform="translate(516.6, 73.8) scale(1.8)" fill="rgba(142, 189, 201, 1)"></use><use xlink:href="#SvgjsG1511" transform="translate(516.6, 147.6) scale(1.8)" fill="rgba(142, 189, 201, 1)"></use><use xlink:href="#SvgjsG1513" transform="translate(516.6, 221.39999999999998) scale(1.8)" fill="rgba(142, 189, 201, 1)"></use><use xlink:href="#SvgjsG1512" transform="translate(516.6, 295.2) scale(1.8)" fill="rgba(142, 189, 201, 1)"></use><use xlink:href="#SvgjsG1514" transform="translate(516.6, 369) scale(1.8)" fill="rgba(142, 189, 201, 1)"></use><use xlink:href="#SvgjsG1514" transform="translate(516.6, 442.79999999999995) scale(1.8)" fill="rgba(142, 189, 201, 1)"></use><use xlink:href="#SvgjsG1514" transform="translate(516.6, 516.6) scale(1.8)" fill="rgba(142, 189, 201, 1)"></use><use xlink:href="#SvgjsG1512" transform="translate(516.6, 590.4) scale(1.8)" fill="rgba(142, 189, 201, 1)"></use><use xlink:href="#SvgjsG1513" transform="translate(516.6, 664.1999999999999) scale(1.8)" fill="rgba(142, 189, 201, 1)"></use><use xlink:href="#SvgjsG1512" transform="translate(590.4, 0) scale(1.8)" fill="rgba(142, 189, 201, 1)"></use><use xlink:href="#SvgjsG1512" transform="translate(590.4, 73.8) scale(1.8)" fill="rgba(142, 189, 201, 1)"></use><use xlink:href="#SvgjsG1512" transform="translate(590.4, 147.6) scale(1.8)" fill="rgba(142, 189, 201, 1)"></use><use xlink:href="#SvgjsG1513" transform="translate(590.4, 221.39999999999998) scale(1.8)" fill="rgba(142, 189, 201, 1)"></use><use xlink:href="#SvgjsG1513" transform="translate(590.4, 295.2) scale(1.8)" fill="rgba(142, 189, 201, 1)"></use><use xlink:href="#SvgjsG1511" transform="translate(590.4, 369) scale(1.8)" fill="rgba(142, 189, 201, 1)"></use><use xlink:href="#SvgjsG1513" transform="translate(590.4, 442.79999999999995) scale(1.8)" fill="rgba(142, 189, 201, 1)"></use><use xlink:href="#SvgjsG1511" transform="translate(590.4, 516.6) scale(1.8)" fill="rgba(142, 189, 201, 1)"></use><use xlink:href="#SvgjsG1514" transform="translate(590.4, 590.4) scale(1.8)" fill="rgba(142, 189, 201, 1)"></use><use xlink:href="#SvgjsG1512" transform="translate(590.4, 664.1999999999999) scale(1.8)" fill="rgba(142, 189, 201, 1)"></use><use xlink:href="#SvgjsG1513" transform="translate(664.1999999999999, 0) scale(1.8)" fill="rgba(142, 189, 201, 1)"></use><use xlink:href="#SvgjsG1513" transform="translate(664.1999999999999, 73.8) scale(1.8)" fill="rgba(142, 189, 201, 1)"></use><use xlink:href="#SvgjsG1512" transform="translate(664.1999999999999, 147.6) scale(1.8)" fill="rgba(142, 189, 201, 1)"></use><use xlink:href="#SvgjsG1512" transform="translate(664.1999999999999, 221.39999999999998) scale(1.8)" fill="rgba(142, 189, 201, 1)"></use><use xlink:href="#SvgjsG1512" transform="translate(664.1999999999999, 295.2) scale(1.8)" fill="rgba(142, 189, 201, 1)"></use><use xlink:href="#SvgjsG1512" transform="translate(664.1999999999999, 369) scale(1.8)" fill="rgba(142, 189, 201, 1)"></use><use xlink:href="#SvgjsG1511" transform="translate(664.1999999999999, 442.79999999999995) scale(1.8)" fill="rgba(142, 189, 201, 1)"></use><use xlink:href="#SvgjsG1511" transform="translate(664.1999999999999, 516.6) scale(1.8)" fill="rgba(142, 189, 201, 1)"></use><use xlink:href="#SvgjsG1513" transform="translate(664.1999999999999, 590.4) scale(1.8)" fill="rgba(142, 189, 201, 1)"></use><use xlink:href="#SvgjsG1512" transform="translate(664.1999999999999, 664.1999999999999) scale(1.8)" fill="rgba(142, 189, 201, 1)"></use></g></defs></svg>